<svg width="51" height="51" viewBox="0 0 51 51" fill="none" xmlns="http://www.w3.org/2000/svg">
<path d="M25.5 5.57812C21.5598 5.57812 17.7081 6.74652 14.432 8.93557C11.1559 11.1246 8.60244 14.236 7.0946 17.8762C5.58676 21.5165 5.19224 25.5221 5.96093 29.3866C6.72962 33.251 8.62699 36.8008 11.4131 39.5869C14.1992 42.373 17.749 44.2704 21.6134 45.0391C25.4779 45.8078 29.4835 45.4133 33.1238 43.9054C36.764 42.3976 39.8754 39.8441 42.0644 36.568C44.2535 33.2919 45.4219 29.4402 45.4219 25.5C45.4114 20.2196 43.3091 15.1585 39.5753 11.4247C35.8415 7.69094 30.7804 5.58865 25.5 5.57812ZM25.5 43.8281C21.875 43.8281 18.3315 42.7532 15.3174 40.7393C12.3034 38.7254 9.95424 35.8629 8.56703 32.5139C7.17982 29.1648 6.81686 25.4797 7.52405 21.9244C8.23125 18.3691 9.97683 15.1033 12.5401 12.5401C15.1033 9.97682 18.3691 8.23124 21.9244 7.52404C25.4797 6.81685 29.1649 7.17981 32.5139 8.56702C35.8629 9.95423 38.7254 12.3034 40.7393 15.3174C42.7532 18.3315 43.8281 21.875 43.8281 25.5C43.8229 30.3593 41.8902 35.0181 38.4541 38.4541C35.0181 41.8902 30.3593 43.8229 25.5 43.8281ZM27.0938 35.8594C27.0938 36.1746 27.0003 36.4827 26.8252 36.7448C26.65 37.0069 26.4011 37.2112 26.1099 37.3318C25.8187 37.4524 25.4982 37.484 25.1891 37.4225C24.8799 37.361 24.5959 37.2092 24.3731 36.9863C24.1502 36.7634 23.9984 36.4795 23.9369 36.1703C23.8754 35.8611 23.9069 35.5407 24.0276 35.2495C24.1482 34.9583 24.3525 34.7093 24.6146 34.5342C24.8767 34.3591 25.1848 34.2656 25.5 34.2656C25.9227 34.2656 26.3281 34.4335 26.627 34.7324C26.9258 35.0313 27.0938 35.4367 27.0938 35.8594ZM31.875 21.5156C31.8732 23.0689 31.3061 24.5685 30.2796 25.7343C29.2532 26.9001 27.8375 27.6524 26.2969 27.8508V28.6875C26.2969 28.8988 26.2129 29.1015 26.0635 29.251C25.914 29.4004 25.7114 29.4844 25.5 29.4844C25.2887 29.4844 25.086 29.4004 24.9365 29.251C24.7871 29.1015 24.7031 28.8988 24.7031 28.6875V27.0938C24.7031 26.8824 24.7871 26.6797 24.9365 26.5303C25.086 26.3808 25.2887 26.2969 25.5 26.2969C26.4457 26.2969 27.3701 26.0165 28.1563 25.4911C28.9426 24.9657 29.5554 24.219 29.9173 23.3453C30.2792 22.4717 30.3739 21.5103 30.1894 20.5828C30.0049 19.6554 29.5495 18.8034 28.8809 18.1348C28.2122 17.4661 27.3603 17.0107 26.4328 16.8262C25.5053 16.6418 24.544 16.7364 23.6703 17.0983C22.7966 17.4602 22.0499 18.073 21.5245 18.8593C20.9992 19.6456 20.7188 20.57 20.7188 21.5156C20.7188 21.727 20.6348 21.9297 20.4854 22.0791C20.3359 22.2285 20.1332 22.3125 19.9219 22.3125C19.7105 22.3125 19.5079 22.2285 19.3584 22.0791C19.209 21.9297 19.125 21.727 19.125 21.5156C19.125 19.8249 19.7967 18.2034 20.9922 17.0078C22.1877 15.8123 23.8093 15.1406 25.5 15.1406C27.1908 15.1406 28.8123 15.8123 30.0078 17.0078C31.2034 18.2034 31.875 19.8249 31.875 21.5156Z" fill="url(#paint0_linear_10_52)"/>
<defs>
<linearGradient id="paint0_linear_10_52" x1="46.8517" y1="-1.21342" x2="0.628287" y2="40.2749" gradientUnits="userSpaceOnUse">
<stop stop-color="#FF2CF7"/>
<stop offset="0.203125" stop-color="#FB047B" stop-opacity="0.796875"/>
<stop offset="0.369792" stop-color="#FF7EBC" stop-opacity="0.81"/>
<stop offset="0.727396" stop-color="#49FFE9" stop-opacity="0.65"/>
<stop offset="1" stop-color="#2C77E7"/>
</linearGradient>
</defs>
</svg>
