<svg width="15" height="19" viewBox="0 0 15 19" fill="none" xmlns="http://www.w3.org/2000/svg">
<path d="M7.5 0C6.90905 -1.24533e-08 6.32389 0.116396 5.77792 0.342542C5.23196 0.568688 4.73588 0.900156 4.31802 1.31802C3.90016 1.73588 3.56869 2.23196 3.34254 2.77792C3.1164 3.32389 3 3.90905 3 4.5C3 5.09095 3.1164 5.67611 3.34254 6.22208C3.56869 6.76804 3.90016 7.26412 4.31802 7.68198C4.73588 8.09984 5.23196 8.43131 5.77792 8.65746C6.32389 8.8836 6.90905 9 7.5 9C8.69347 9 9.83807 8.52589 10.682 7.68198C11.5259 6.83807 12 5.69347 12 4.5C12 3.30653 11.5259 2.16193 10.682 1.31802C9.83807 0.474106 8.69347 2.51506e-08 7.5 0ZM4.5 4.5C4.5 4.10603 4.5776 3.71593 4.72836 3.35195C4.87913 2.98797 5.1001 2.65726 5.37868 2.37868C5.65726 2.1001 5.98797 1.87913 6.35195 1.72836C6.71593 1.5776 7.10603 1.5 7.5 1.5C7.89397 1.5 8.28407 1.5776 8.64805 1.72836C9.01203 1.87913 9.34274 2.1001 9.62132 2.37868C9.8999 2.65726 10.1209 2.98797 10.2716 3.35195C10.4224 3.71593 10.5 4.10603 10.5 4.5C10.5 5.29565 10.1839 6.05871 9.62132 6.62132C9.05871 7.18393 8.29565 7.5 7.5 7.5C6.70435 7.5 5.94129 7.18393 5.37868 6.62132C4.81607 6.05871 4.5 5.29565 4.5 4.5ZM0 13.25C0 12.6533 0.237053 12.081 0.65901 11.659C1.08097 11.2371 1.65326 11 2.25 11H12.75C13.3467 11 13.919 11.2371 14.341 11.659C14.7629 12.081 15 12.6533 15 13.25V13.781C14.9987 13.8619 14.993 13.9427 14.983 14.023C14.9604 14.2293 14.9237 14.4338 14.873 14.635C14.7077 15.2917 14.4129 15.9087 14.006 16.45C12.992 17.803 11.058 19 7.5 19C3.942 19 2.008 17.803 0.994 16.45C0.587455 15.9086 0.293039 15.2916 0.128 14.635C0.0627078 14.3736 0.0208753 14.1069 0.00300002 13.838C0.0017538 13.819 0.000753695 13.8 0 13.781V13.25ZM1.5 13.745V13.763L1.509 13.863C1.519 13.957 1.539 14.098 1.583 14.271C1.69959 14.7335 1.90694 15.1683 2.193 15.55C2.867 16.447 4.308 17.5 7.5 17.5C10.692 17.5 12.133 16.447 12.806 15.55C13.156 15.084 13.33 14.618 13.416 14.271C13.458 14.1043 13.4858 13.9344 13.499 13.763L13.5 13.745V13.25C13.5 13.0511 13.421 12.8603 13.2803 12.7197C13.1397 12.579 12.9489 12.5 12.75 12.5H2.25C2.05109 12.5 1.86032 12.579 1.71967 12.7197C1.57902 12.8603 1.5 13.0511 1.5 13.25V13.745Z" fill="#F8F8F8" fill-opacity="0.5"/>
</svg>
