<svg width="24" height="24" viewBox="0 0 24 24" fill="none" xmlns="http://www.w3.org/2000/svg">
<path d="M11.7238 2.09231C13.0565 0.768449 14.8548 0.0176307 16.7344 0.000306557C18.6141 -0.0170176 20.426 0.700527 21.7829 1.9996C23.1398 3.29867 23.9341 5.07623 23.9961 6.9524C24.0581 8.82858 23.3828 10.6545 22.1145 12.0401L21.8878 12.2762L11.3291 22.8183L11.2859 22.8542C10.4638 23.5934 9.39637 24.0017 8.29019 24C7.18402 23.9983 6.11781 23.5869 5.29797 22.8452C4.47814 22.1036 3.96301 21.0846 3.8523 19.9854C3.74159 18.8863 4.04318 17.7852 4.69869 16.8954C4.72727 16.8401 4.76145 16.7879 4.80068 16.7396L4.86547 16.6677L4.96986 16.5623L5.13904 16.3849L5.14264 16.3885L14.0647 7.45683C14.217 7.30446 14.4189 7.2117 14.6338 7.19543C14.8487 7.17915 15.0623 7.24045 15.2358 7.36816L15.3366 7.45564C15.4892 7.60765 15.582 7.8093 15.5983 8.02392C15.6146 8.23854 15.5533 8.45187 15.4254 8.62512L15.339 8.72577L6.2261 17.848C5.80434 18.3648 5.59126 19.0203 5.6287 19.686C5.66614 20.3516 5.95139 20.9792 6.42846 21.4456C6.90552 21.912 7.53993 22.1834 8.20712 22.2066C8.8743 22.2298 9.52607 22.003 10.0344 21.5709L20.6327 10.9904C21.6148 9.99295 22.1704 8.65349 22.1824 7.25469C22.1944 5.85588 21.6618 4.50711 20.6971 3.49295C19.7323 2.47879 18.4108 1.87856 17.0113 1.81889C15.6118 1.75922 14.2439 2.24478 13.196 3.17312L12.9945 3.36484L12.9801 3.38162L1.53708 14.808C1.37651 14.9688 1.16094 15.063 0.933707 15.0715C0.706474 15.08 0.484432 15.0023 0.312223 14.854C0.140014 14.7057 0.0304082 14.4978 0.00544251 14.2721C-0.0195232 14.0464 0.0420027 13.8196 0.17765 13.6374L0.265239 13.5367L11.7226 2.09351H11.7238V2.09231Z" fill="white"/>
</svg>
