<svg width="30" height="20" viewBox="0 0 30 20" fill="none" xmlns="http://www.w3.org/2000/svg">
<path d="M25 0C25.663 0 26.2989 0.263392 26.7678 0.732233C27.2366 1.20107 27.5 1.83696 27.5 2.5V15C27.5 16.3875 26.3875 17.5 25 17.5H30V20H0V17.5H5C4.33696 17.5 3.70107 17.2366 3.23223 16.7678C2.76339 16.2989 2.5 15.663 2.5 15V2.5C2.5 1.1125 3.6125 0 5 0H25ZM25 2.5H5V15H25V2.5ZM15 10C17.7625 10 20 11.125 20 12.5V13.75H10V12.5C10 11.125 12.2375 10 15 10ZM15 3.75C15.663 3.75 16.2989 4.01339 16.7678 4.48223C17.2366 4.95107 17.5 5.58696 17.5 6.25C17.5 6.91304 17.2366 7.54893 16.7678 8.01777C16.2989 8.48661 15.663 8.75 15 8.75C13.6125 8.75 12.5 7.6375 12.5 6.25C12.5 4.8625 13.625 3.75 15 3.75Z" fill="white"/>
</svg>
