<svg width="29" height="29" viewBox="0 0 29 29" fill="none" xmlns="http://www.w3.org/2000/svg">
<path d="M14.1375 0C6.32949 0 0 6.32949 0 14.1375C0 21.9456 6.32949 28.2751 14.1375 28.2751C21.9456 28.2751 28.2751 21.9456 28.2751 14.1375C28.2751 6.32949 21.9456 0 14.1375 0ZM10.6768 19.9972H7.81393V10.7843H10.6768V19.9972ZM9.22768 9.65329C8.32347 9.65329 7.73883 9.01268 7.73883 8.22039C7.73883 7.4119 8.34114 6.79043 9.2645 6.79043C10.1879 6.79043 10.7534 7.4119 10.771 8.22039C10.771 9.01268 10.1879 9.65329 9.22768 9.65329ZM21.1327 19.9972H18.2698V14.8915C18.2698 13.7031 17.8545 12.8961 16.8192 12.8961C16.0284 12.8961 15.5587 13.4424 15.351 13.9682C15.2744 14.1552 15.2553 14.4203 15.2553 14.6839V19.9958H12.391V13.7222C12.391 12.5721 12.3541 11.6104 12.3159 10.7828H14.8032L14.9342 12.0626H14.9917C15.3687 11.4617 16.292 10.5752 17.8369 10.5752C19.7204 10.5752 21.1327 11.8372 21.1327 14.5499V19.9972Z" fill="white"/>
</svg>
