<svg width="17" height="24" viewBox="0 0 17 24" fill="none" xmlns="http://www.w3.org/2000/svg">
<path d="M8.81657 23.8C6.10439 20.0222 2.87343 15.7886 1.12988 12.75H15.8632L8.81657 23.8Z" fill="white"/>
<path fill-rule="evenodd" clip-rule="evenodd" d="M8.5 17C13.1944 17 17 13.1944 17 8.5C17 3.80558 13.1944 0 8.5 0C3.80558 0 0 3.80558 0 8.5C0 13.1944 3.80558 17 8.5 17ZM8.49805 12.75C10.8453 12.75 12.748 10.8472 12.748 8.5C12.748 6.15279 10.8453 4.25 8.49805 4.25C6.15084 4.25 4.24805 6.15279 4.24805 8.5C4.24805 10.8472 6.15084 12.75 8.49805 12.75Z" fill="white"/>
</svg>
