<svg width="145" height="34" viewBox="0 0 145 34" fill="none" xmlns="http://www.w3.org/2000/svg">
<path d="M59.4082 16.7415L55.8246 23.8101H54.0612L50.4774 16.7415V24.8805H47.5195V11.9429H51.5393L54.9713 19.0485L58.3844 11.9614H62.3852V24.899H59.4272L59.4082 16.7415Z" fill="white"/>
<path d="M65.5907 13.6777C65.2683 13.3639 65.0977 12.9764 65.0977 12.515C65.0977 12.0535 65.2683 11.666 65.5907 11.3523C65.913 11.0385 66.3112 10.8724 66.7852 10.8724C67.2593 10.8724 67.6575 11.0385 67.9797 11.3523C68.3021 11.666 68.4727 12.0535 68.4727 12.515C68.4727 12.9764 68.3021 13.3639 67.9797 13.6777C67.6575 13.9914 67.2593 14.1576 66.7852 14.1576C66.3112 14.1391 65.913 13.9914 65.5907 13.6777ZM68.2073 24.8989H65.3631V14.9511H68.2073V24.8989Z" fill="white"/>
<path d="M73.7621 19.3443V24.8995H70.918V14.9519H73.7621V16.0592C74.6154 15.2102 75.6014 14.7857 76.6632 14.7857C77.744 14.7857 78.6352 15.1548 79.3747 15.8931C80.0949 16.6313 80.4742 17.6279 80.4742 18.846V24.8995H77.6303V19.2705C77.6303 17.7387 77.0614 16.982 75.9048 16.982C75.3359 16.982 74.8429 17.185 74.4068 17.591C73.9707 17.9786 73.7621 18.5692 73.7621 19.3443Z" fill="white"/>
<path d="M86.315 16.9262V21.3926C86.315 21.7801 86.4098 22.0755 86.6186 22.2969C86.8265 22.5184 87.0543 22.6291 87.3388 22.6291C87.8694 22.6291 88.3251 22.3892 88.6852 21.9278L89.7472 23.8657C88.8557 24.6592 87.9267 25.0468 86.9404 25.0468C85.9549 25.0468 85.12 24.7331 84.4563 24.1056C83.7743 23.4781 83.4325 22.6107 83.4325 21.5402V16.9447H82.2383V14.9515H83.4325V11.98H86.2959V14.9515H88.7609V16.9447L86.315 16.9262Z" fill="white"/>
<path d="M93.0452 28.8119C92.0397 28.8119 91.0916 28.4243 90.2192 27.6307L91.5091 25.5821C91.9831 26.0436 92.4763 26.265 92.9878 26.265C93.2531 26.265 93.4809 26.1358 93.6706 25.8774C93.8602 25.619 93.955 25.3607 93.955 25.0654C93.955 24.7885 92.6277 21.4111 89.9922 14.9331H93.026L95.5102 21.1342L98.0126 14.9331H101.046L96.3061 26.671C96.0216 27.3539 95.5858 27.8707 94.9979 28.2582C94.4099 28.6273 93.7654 28.8119 93.0452 28.8119Z" fill="white"/>
<path d="M114.662 16.7415L111.078 23.8101H109.315L105.732 16.7415V24.8805H102.773V11.9429H106.793L110.225 19.0485L113.657 11.9429H117.658V24.8805H114.7L114.662 16.7415Z" fill="white"/>
<path d="M120.86 13.6596C120.538 13.3459 120.367 12.9583 120.367 12.4969C120.367 12.0355 120.538 11.6479 120.86 11.3342C121.183 11.0204 121.581 10.8543 122.055 10.8543C122.529 10.8543 122.927 11.0204 123.25 11.3342C123.572 11.6479 123.742 12.0355 123.742 12.4969C123.742 12.9583 123.572 13.3459 123.25 13.6596C122.927 13.9734 122.529 14.1394 122.055 14.1394C121.581 14.1394 121.183 13.9734 120.86 13.6596ZM123.477 24.8808H120.632V14.9331H123.477V24.8808Z" fill="white"/>
<path d="M129.016 19.3254V24.8806H126.172V14.9328H129.016V16.0402C129.869 15.1912 130.855 14.7667 131.917 14.7667C132.998 14.7667 133.889 15.1358 134.628 15.8741C135.368 16.6123 135.728 17.6089 135.728 18.827V24.8806H132.884V19.2515C132.884 17.7197 132.315 16.963 131.158 16.963C130.59 16.963 130.096 17.166 129.661 17.572C129.243 17.9596 129.016 18.5502 129.016 19.3254Z" fill="white"/>
<path d="M141.569 16.9262V21.3926C141.569 21.7801 141.664 22.0755 141.872 22.2969C142.081 22.5184 142.308 22.6291 142.593 22.6291C143.124 22.6291 143.579 22.3892 143.939 21.9278L145.001 23.8657C144.11 24.6592 143.181 25.0468 142.195 25.0468C141.209 25.0468 140.375 24.7331 139.711 24.1056C139.028 23.4781 138.687 22.6107 138.687 21.5402V16.9447H137.492V14.9515H138.687V11.98H141.55V14.9515H144.015V16.9447L141.569 16.9262Z" fill="white"/>
<path opacity="0.75" d="M27.2664 23.2324L10.9597 32.4049C6.08659 35.1364 0 31.7221 0 26.2407V7.91395C0 2.43254 6.08659 -0.981817 10.9597 1.74967L27.2664 10.9223C32.1395 13.6537 32.1395 20.5009 27.2664 23.2324Z" fill="white" fill-opacity="0.5"/>
<path opacity="0.75" d="M34.4539 23.2324L18.1472 32.4049C13.2741 35.1364 7.1875 31.7221 7.1875 26.2407V7.91395C7.1875 2.43254 13.2741 -0.981817 18.1472 1.74967L34.4539 10.9223C39.327 13.6537 39.327 20.5009 34.4539 23.2324Z" fill="white" fill-opacity="0.5"/>
<path fill-rule="evenodd" clip-rule="evenodd" d="M10.9609 32.4052L27.2677 23.2326C32.1407 20.5011 32.1407 13.654 27.2677 10.9225L10.9609 1.7499C10.9414 1.73898 10.9219 1.72818 10.9024 1.71747C8.73898 2.90621 7.1875 5.14675 7.1875 7.91418V26.2409C7.1875 29.0084 8.73898 31.2489 10.9024 32.4377C10.9219 32.4269 10.9414 32.4161 10.9609 32.4052Z" fill="white"/>
</svg>
