<svg width="24" height="24" viewBox="0 0 24 24" fill="none" xmlns="http://www.w3.org/2000/svg">
<path d="M2.3 20C1.6675 20 1.12623 19.8043 0.6762 19.413C0.2254 19.021 0 18.55 0 18V6C0 5.45 0.2254 4.97933 0.6762 4.588C1.12623 4.196 1.6675 4 2.3 4H20.7C21.3325 4 21.8741 4.196 22.3249 4.588C22.775 4.97933 23 5.45 23 6V18C23 18.55 22.775 19.021 22.3249 19.413C21.8741 19.8043 21.3325 20 20.7 20H2.3ZM11.5 12.825C11.5958 12.825 11.6963 12.8123 11.8013 12.787C11.9071 12.7623 12.0079 12.725 12.1037 12.675L20.24 8.25C20.3933 8.16667 20.5083 8.06267 20.585 7.938C20.6617 7.81267 20.7 7.675 20.7 7.525C20.7 7.19167 20.5371 6.94167 20.2113 6.775C19.8854 6.60833 19.55 6.61667 19.205 6.8L11.5 11L3.795 6.8C3.45 6.61667 3.11458 6.61233 2.78875 6.787C2.46292 6.96233 2.3 7.20833 2.3 7.525C2.3 7.69167 2.33833 7.83733 2.415 7.962C2.49167 8.08733 2.60667 8.18333 2.76 8.25L10.8962 12.675C10.9921 12.725 11.0929 12.7623 11.1987 12.787C11.3037 12.8123 11.4042 12.825 11.5 12.825Z" fill="white"/>
</svg>
