<svg width="44" height="43" viewBox="0 0 44 43" fill="none" xmlns="http://www.w3.org/2000/svg">
<path opacity="0.3" d="M28.9916 30.9414L32.4717 14.5356C32.6137 13.8412 32.5308 13.344 32.2231 13.0441C31.9153 12.7443 31.5089 12.689 31.0039 12.8784L10.5499 20.7617C10.0922 20.9353 9.78053 21.1326 9.61481 21.3536C9.4491 21.5745 9.42937 21.7836 9.55563 21.9809C9.68189 22.1782 9.9344 22.3321 10.3132 22.4426L15.545 24.076L27.6896 16.4295C28.021 16.2085 28.2735 16.1612 28.4471 16.2874C28.5576 16.3663 28.5261 16.4847 28.3524 16.6425L18.5279 25.5201L18.1491 30.9177C18.5121 30.9177 18.8672 30.7441 19.2144 30.3969L21.7712 27.9348L27.0741 31.841C28.0841 32.4091 28.7233 32.1093 28.9916 30.9414ZM43.2668 21.2115C43.2668 24.0839 42.7065 26.8301 41.586 29.4499C40.4654 32.0698 38.9582 34.3267 37.0643 36.2206C35.1704 38.1145 32.9136 39.6217 30.2937 40.7422C27.6738 41.8628 24.9277 42.4231 22.0553 42.4231C19.1829 42.4231 16.4367 41.8628 13.8169 40.7422C11.197 39.6217 8.94011 38.1145 7.04623 36.2206C5.15234 34.3267 3.64512 32.0698 2.52457 29.4499C1.40402 26.8301 0.84375 24.0839 0.84375 21.2115C0.84375 18.3391 1.40402 15.593 2.52457 12.9731C3.64512 10.3532 5.15234 8.09636 7.04623 6.20248C8.94011 4.30859 11.197 2.80137 13.8169 1.68082C16.4367 0.560275 19.1829 0 22.0553 0C24.9277 0 27.6738 0.560275 30.2937 1.68082C32.9136 2.80137 35.1704 4.30859 37.0643 6.20248C38.9582 8.09636 40.4654 10.3532 41.586 12.9731C42.7065 15.593 43.2668 18.3391 43.2668 21.2115Z" fill="#848587"/>
</svg>
