<svg width="43" height="43" viewBox="0 0 43 43" fill="none" xmlns="http://www.w3.org/2000/svg">
<path opacity="0.3" d="M21.6334 0C9.91971 0 0.421875 9.49784 0.421875 21.2115C0.421875 32.9252 9.91971 42.4231 21.6334 42.4231C33.3471 42.4231 42.8449 32.9252 42.8449 21.2115C42.8449 9.49784 33.3471 0 21.6334 0ZM31.8272 15.9891C31.8414 16.2117 31.8414 16.4437 31.8414 16.6709C31.8414 23.6215 26.548 31.6279 16.875 31.6279C13.8921 31.6279 11.1271 30.7614 8.79759 29.27C9.22371 29.3174 9.6309 29.3363 10.0665 29.3363C12.5285 29.3363 14.7917 28.503 16.5957 27.092C14.2851 27.0447 12.3439 25.5296 11.681 23.4463C12.4907 23.5647 13.2198 23.5647 14.0531 23.3516C12.8634 23.1099 11.7941 22.4638 11.0268 21.523C10.2595 20.5822 9.84153 19.4048 9.84396 18.1908V18.1245C10.54 18.5175 11.3591 18.7589 12.2161 18.7921C11.4956 18.312 10.9048 17.6615 10.496 16.8983C10.0872 16.1352 9.87295 15.283 9.87237 14.4172C9.87237 13.4371 10.128 12.5423 10.5873 11.7658C11.9078 13.3914 13.5556 14.7209 15.4237 15.668C17.2917 16.615 19.338 17.1584 21.4298 17.2628C20.6865 13.6881 23.3568 10.7952 26.567 10.7952C28.0821 10.7952 29.4457 11.4296 30.4068 12.4523C31.5952 12.2298 32.7316 11.7847 33.7448 11.1881C33.3518 12.405 32.528 13.4324 31.4343 14.081C32.4948 13.9674 33.5175 13.6739 34.4645 13.2619C33.7495 14.313 32.8547 15.2458 31.8272 15.9891Z" fill="#848587"/>
</svg>
